<svg xmlns="http://www.w3.org/2000/svg" viewBox="0 0 64 64"><defs><style>.a{fill:#000842;}.b{fill:#fff;}.c{fill:#f6ae2d;}</style></defs><rect class="a" width="64" height="64"/><path class="b" d="M43.47,7.69a6.09,6.09,0,1,0,6.08,6.09A6.09,6.09,0,0,0,43.47,7.69Z"/><path class="c" d="M23.48,50.77a6.11,6.11,0,0,1-3.2.91,5.86,5.86,0,0,1-5-2.73,7.26,7.26,0,0,1-1.15-3.12H12.78v-1.7h1.13v-.41c0-.24,0-.48,0-.72H12.78V41.3h1.38A8.3,8.3,0,0,1,15.58,38a5.85,5.85,0,0,1,4.74-2.45,6.89,6.89,0,0,1,3.08.72L22.82,39a5.21,5.21,0,0,0-2.28-.58A3,3,0,0,0,18,39.74a4.26,4.26,0,0,0-.66,1.55h5.11V43H17.05c0,.24,0,.5,0,.74v.39h5.44v1.7H17.32A4,4,0,0,0,18,47.51a3.21,3.21,0,0,0,2.65,1.22A5.1,5.1,0,0,0,23,48.11Z"/><path class="b" d="M32.17,27.22A1.75,1.75,0,0,1,33.92,29V52.33H51.45V30.13h.34A1.91,1.91,0,0,1,53.69,32V49.47a2.73,2.73,0,1,0,5.44,0V29.94a8.73,8.73,0,0,0-8.41-8.74h-38c-3.89,0-3.89,6,0,6Z"/><path class="c" d="M15.06,28.41C9.77,30.46,5.87,42.75,5.87,48.52c0,7,5.67,8.63,12.63,8.63s12.64-1.66,12.64-8.63c0-5.73-3.85-17.9-9.09-20.07ZM28.87,48.52c0,5.72-4.65,6.37-10.37,6.37S8.14,54.24,8.14,48.52,12.79,30.15,18.5,30.15,28.87,42.8,28.87,48.52Z"/><path class="c" d="M15.71,17.51H21L20,20h2.27l1.85-4.66H12.58L14.43,20h2.3Z"/></svg>