<svg xmlns="http://www.w3.org/2000/svg" viewBox="0 0 32 32"><defs><style>.a,.c{fill:#fff;}.b{fill:#f6ae2d;stroke:#000842;stroke-miterlimit:10;}.b,.c{isolation:isolate;}.d{fill:#000842;}</style></defs><rect class="a" width="32" height="32"/><path class="b" d="M16.14,2A6.26,6.26,0,0,0,10,8.37c0,2.58.86,3.29,5.51,10.29a.75.75,0,0,0,1.07.2.72.72,0,0,0,.19-.2c4.65-7,5.51-7.71,5.51-10.29A6.26,6.26,0,0,0,16.14,2Z"/><circle class="c" cx="16.06" cy="8.68" r="2.88"/><path class="d" d="M16.08,10.32a1.68,1.68,0,1,1,1.69-1.68A1.68,1.68,0,0,1,16.08,10.32Z"/><rect class="d" x="1.88" y="28.51" width="28" height="1"/><path class="d" d="M2.07,22H3.83l.61,1.28L5.16,22H6.79L5.47,24.18l1.41,2.4H5.16l-.72-1.47L3.6,26.58H2l1.4-2.4Z"/><path class="d" d="M8.06,22H9.82l.61,1.28L11.14,22h1.64l-1.32,2.18,1.41,2.4H11.14l-.71-1.47-.84,1.47H8l1.4-2.4Z"/><path class="d" d="M13.8,22h1.76l.61,1.28L16.89,22h1.63L17.2,24.18l1.41,2.4H16.89l-.72-1.47-.84,1.47h-1.6l1.4-2.4Z"/><path class="d" d="M19.55,22H21.3l.62,1.28L22.63,22h1.63L23,24.18l1.41,2.4H22.63l-.71-1.47-.84,1.47H19.47l1.41-2.4Z"/><path class="d" d="M25.29,22h1.76l.61,1.28L28.37,22H30l-1.32,2.18,1.41,2.4H28.37l-.71-1.47-.84,1.47h-1.6l1.4-2.4Z"/></svg>