<svg xmlns="http://www.w3.org/2000/svg" viewBox="0 0 32 32"><defs><style>.a{fill:#fff;}.b{fill:#000842;}.c{fill:#f6ae2d;}</style></defs><rect class="a" width="32" height="32"/><path class="b" d="M16.1,2a6,6,0,1,0,6,6A6,6,0,0,0,16.1,2Z"/><path class="b" d="M20.19,15.48H12c-2.41,0-4.37,2.44-4.37,5.42V30h17V20.9C24.57,17.92,22.59,15.48,20.19,15.48Z"/><path class="c" d="M14.9,17.49h2.38c.14,0,.24.08.23.19l-.3,2.56a.22.22,0,0,1-.23.15H15.21a.21.21,0,0,1-.22-.15l-.3-2.56C14.67,17.57,14.77,17.49,14.9,17.49Z"/><path class="c" d="M17.89,27.3l-1.56,1.39a.38.38,0,0,1-.47,0L14.3,27.3a.42.42,0,0,1-.13-.36L15,21.53a.39.39,0,0,1,.36-.33h1.57a.38.38,0,0,1,.36.33L18,26.94A.42.42,0,0,1,17.89,27.3Z"/></svg>