<svg xmlns="http://www.w3.org/2000/svg" viewBox="0 0 32 32"><defs><style>.a,.c{fill:#fff;}.b{fill:#f6ae2d;stroke:#000842;stroke-miterlimit:10;}.c{font-size:20.47px;}.c,.d{font-family:ArialRoundedMTBold, Arial Rounded MT Bold;}.d{font-size:18.44px;fill:#000842;}</style></defs><rect class="a" width="32" height="32"/><path class="b" d="M12.57,12.07H6.09c-1.9,0-3.46,1.9-3.46,4.21v12.4H16V16.28C16,14,14.47,12.07,12.57,12.07Z"/><path class="b" d="M9.34,1.68a4.68,4.68,0,0,0-4.76,4.6,4.68,4.68,0,0,0,4.76,4.61,4.67,4.67,0,0,0,4.74-4.61A4.66,4.66,0,0,0,9.34,1.68Z"/><ellipse class="a" cx="21" cy="21.05" rx="10" ry="8.95"/><text class="c" transform="translate(10 27.68) scale(0.92 1)">@</text><text class="d" transform="translate(11 26.93) scale(1.02 1)">@</text></svg>